<?xml version="1.0" encoding="iso-8859-1"?>
<!-- Generator: Adobe Illustrator 19.0.0, SVG Export Plug-In . SVG Version: 6.00 Build 0)  -->
<svg version="1.1" id="Layer_1" xmlns="http://www.w3.org/2000/svg" xmlns:xlink="http://www.w3.org/1999/xlink" x="0px" y="0px"
	 viewBox="0 0 512 512" style="enable-background:new 0 0 512 512;" xml:space="preserve">
<g>
	<g>
		<path d="M256,0C134.537,0,35.721,98.816,35.721,220.279c0,58.117,22.633,111.039,59.535,150.442v23.4
			C95.256,459.12,148.136,512,213.135,512h85.73c64.999,0,117.879-52.88,117.879-117.879v-23.4
			c36.901-39.404,59.535-92.326,59.535-150.442C476.279,98.816,377.463,0,256,0z M256,446.512
			c-16.441,0-29.767-13.327-29.767-29.767h59.535C285.767,433.184,272.44,446.512,256,446.512z M381.023,303.628
			c0,32.681-19.399,61.825-48.541,74.928c-12.644-17.519-33.222-28.491-55.32-28.491h-42.326c-22.098,0-42.676,10.972-55.32,28.491
			c-29.141-13.104-48.54-42.247-48.54-74.928v-53.581h20.512c44.201,0,83.002-23.557,104.511-58.774
			c21.509,35.217,60.31,58.774,104.511,58.774h20.512V303.628z M298.865,102.4h-85.73c-64.999,0-117.879,52.88-117.879,117.879
			v90.589c-15.15-26.778-23.814-57.689-23.814-90.589c0-101.765,82.793-184.558,184.558-184.558s184.558,82.793,184.558,184.558
			c0,32.9-8.664,63.812-23.814,90.589v-90.589C416.744,155.28,363.864,102.4,298.865,102.4z"/>
	</g>
</g>
<g>
	<g>
		<circle cx="190.512" cy="309.581" r="17.86"/>
	</g>
</g>
<g>
	<g>
		<circle cx="321.488" cy="309.581" r="17.86"/>
	</g>
</g>
<g>
</g>
<g>
</g>
<g>
</g>
<g>
</g>
<g>
</g>
<g>
</g>
<g>
</g>
<g>
</g>
<g>
</g>
<g>
</g>
<g>
</g>
<g>
</g>
<g>
</g>
<g>
</g>
<g>
</g>
</svg>
